<svg width="24" height="24" viewBox="0 0 24 24" fill="white" xmlns="http://www.w3.org/2000/svg"><path id="Union" fill-rule="evenodd" clip-rule="evenodd" d="M13.75 6.00049C14.1642 6.00049 14.5 6.33627 14.5 6.75049V14.2501C14.5 14.6643 14.1642 15.0001 13.75 15.0001C13.3358 15.0001 13 14.6643 13 14.2501V6.75049C13 6.33627 13.3358 6.00049 13.75 6.00049ZM5 17.2501C5 16.8359 5.33579 16.5001 5.75 16.5001H18.25C18.6642 16.5001 19 16.8359 19 17.2501C19 17.6643 18.6642 18.0001 18.25 18.0001H5.75C5.33579 18.0001 5 17.6643 5 17.2501ZM11 11.7501C11 11.3359 10.6642 11.0001 10.25 11.0001C9.83579 11.0001 9.5 11.3359 9.5 11.7501V14.2501C9.5 14.6643 9.83579 15.0001 10.25 15.0001C10.6642 15.0001 11 14.6643 11 14.2501V11.7501ZM17.25 8.0001C17.6642 8.0001 18 8.33588 18 8.7501V14.2501C18 14.6643 17.6642 15.0001 17.25 15.0001C16.8358 15.0001 16.5 14.6643 16.5 14.2501V8.7501C16.5 8.33588 16.8358 8.0001 17.25 8.0001ZM7.5 9.7501C7.5 9.33588 7.16421 9.0001 6.75 9.0001C6.33579 9.0001 6 9.33588 6 9.7501V14.2501C6 14.6643 6.33579 15.0001 6.75 15.0001C7.16421 15.0001 7.5 14.6643 7.5 14.2501V9.7501Z"></path></svg>