<svg width="24" height="24" viewBox="0 0 24 24" fill="white" xmlns="http://www.w3.org/2000/svg"><path id="Shape" fill-rule="evenodd" clip-rule="evenodd" d="M6 8.5C6 6.567 7.567 5 9.5 5C11.433 5 13 6.567 13 8.5V9.5C13 11.433 11.433 13 9.5 13C7.567 13 6 11.433 6 9.5V8.5ZM9.5 6.5C8.39543 6.5 7.5 7.39543 7.5 8.5V9.5C7.5 10.6046 8.39543 11.5 9.5 11.5C10.6046 11.5 11.5 10.6046 11.5 9.5V8.5C11.5 7.39543 10.6046 6.5 9.5 6.5ZM7.38075 15.6637C8.03314 15.5572 8.70698 15.5 9.5 15.5C10.276 15.5 10.9549 15.5595 11.6125 15.6665C12.107 15.747 12.5 16.2099 12.5 16.8017V17.75C12.5 17.8881 12.3881 18 12.25 18H6.75C6.61193 18 6.5 17.8881 6.5 17.75V16.7954C6.5 16.2043 6.89094 15.7437 7.38075 15.6637ZM9.5 14C8.63009 14 7.87524 14.0631 7.13899 14.1833C5.83218 14.3967 5 15.566 5 16.7954V17.75C5 18.7165 5.7835 19.5 6.75 19.5H12.25C13.2165 19.5 14 18.7165 14 17.75V16.8017C14 15.5672 13.1616 14.3988 11.8534 14.186C11.1164 14.066 10.3569 14 9.5 14ZM15.3189 14.071C14.9064 14.033 14.5412 14.3365 14.5032 14.749C14.4651 15.1614 14.7686 15.5266 15.1811 15.5647C15.498 15.5939 15.8098 15.6326 16.1158 15.68C16.6088 15.7562 17 16.2123 17 16.8017V17.75C17 17.888 16.8881 18 16.75 18H15.25C14.8358 18 14.5 18.3358 14.5 18.75C14.5 19.1642 14.8358 19.5 15.25 19.5H16.75C17.7165 19.5 18.5 18.7165 18.5 17.75V16.8017C18.5 15.5648 17.657 14.4004 16.345 14.1976C16.0091 14.1456 15.6667 14.1031 15.3189 14.071ZM14.5 6C14.0858 6 13.75 6.33579 13.75 6.75C13.75 7.16421 14.0858 7.5 14.5 7.5C15.3284 7.5 16 8.17157 16 9V10C16 10.8284 15.3284 11.5 14.5 11.5C14.0858 11.5 13.75 11.8358 13.75 12.25C13.75 12.6642 14.0858 13 14.5 13C16.1569 13 17.5 11.6569 17.5 10V9C17.5 7.34315 16.1569 6 14.5 6Z"></path></svg>