<svg width="24" height="24" viewBox="0 0 24 24" fill="white" xmlns="http://www.w3.org/2000/svg"><path id="Shape" fill-rule="evenodd" clip-rule="evenodd" d="M19.7978 5.58321C19.8422 4.83547 19.2234 4.21684 18.4757 4.26133L18.3189 4.27066C15.8735 4.41616 13.5569 5.39191 11.7478 7.02765L8.32184 7.05367C7.99361 7.05616 7.67954 7.18765 7.44745 7.41975L4.60478 10.2624C3.81329 11.0539 4.38121 12.4068 5.50051 12.3962L7.67486 12.3756C7.69298 12.3971 7.71213 12.4179 7.73233 12.4381L11.6214 16.3272C11.6323 16.338 11.6433 16.3486 11.6545 16.3588L11.6339 18.5298C11.6233 19.6491 12.9762 20.217 13.7677 19.4255L16.6104 16.5828C16.8425 16.3507 16.974 16.0367 16.9765 15.7084L17.002 12.3446C18.6558 10.5304 19.6424 8.20026 19.7885 5.73986L19.7978 5.58321ZM13.156 16.2068L15.4904 13.8725L15.4773 15.5946L13.1396 17.9323L13.156 16.2068ZM15.6199 11.6215C17.1779 10.0531 18.122 7.97917 18.2828 5.77631C16.07 5.93808 13.9874 6.89013 12.4166 8.46095L9.14655 11.731L12.3285 14.913L15.6199 11.6215ZM6.09801 10.8905L7.8235 10.8742L10.1579 8.53977L8.43567 8.55285L6.09801 10.8905ZM6.63248 17.4158C6.8317 17.3919 7.04659 17.3605 7.25532 17.3196C7.48104 17.2754 7.68136 17.2234 7.83886 17.1654C7.99313 17.1086 8.05232 17.0653 8.06078 17.0591L8.06165 17.0585C8.06191 17.0583 8.06193 17.0583 8.06173 17.0585C8.31964 16.8006 8.34116 16.3504 8.02516 16.0344C7.68991 15.6992 7.21133 15.729 6.97175 15.9685C6.97275 15.9676 6.97246 15.968 6.97105 15.97C6.9634 15.9812 6.92261 16.0405 6.87017 16.1878C6.81365 16.3467 6.76377 16.5493 6.72202 16.7781C6.68302 16.9919 6.65398 17.2121 6.63248 17.4158ZM6.14063 18.9682C5.54753 19.0092 5.05422 18.5238 5.08707 17.9292C5.10457 17.6125 5.14672 17.0552 5.24638 16.5089C5.29612 16.2363 5.36348 15.9477 5.457 15.6849C5.5449 15.4379 5.68199 15.137 5.91109 14.9079C6.80271 14.0163 8.23331 14.1213 9.08582 14.9738C9.95759 15.8455 9.99566 17.2459 9.12239 18.1192C8.89678 18.3448 8.60163 18.483 8.3572 18.573C8.09777 18.6686 7.81302 18.7388 7.54383 18.7916C7.00452 18.8973 6.45459 18.9465 6.14063 18.9682ZM14.1329 9.92658C14.6211 10.4147 15.4125 10.4147 15.9007 9.92658C16.3889 9.43842 16.3889 8.64697 15.9007 8.15881C15.4125 7.67066 14.6211 7.67066 14.1329 8.15881C13.6448 8.64697 13.6448 9.43842 14.1329 9.92658Z"></path></svg>