<svg width="25" height="24" viewBox="0 0 25 24" fill="white" xmlns="http://www.w3.org/2000/svg"><path id="Shape" fill-rule="evenodd" clip-rule="evenodd" d="M8.57313 5.48777C8.67076 5.39014 8.82906 5.39014 8.92669 5.48777L9.8142 6.37529L8.71949 7.47001C8.42659 7.7629 8.42659 8.23777 8.71949 8.53067C9.01238 8.82356 9.48725 8.82356 9.78015 8.53067L10.8749 7.43595L11.8622 8.42333C11.1936 8.98788 10.5463 9.59113 9.95307 10.2234C9.58019 10.6208 9.23835 11.0093 8.94031 11.3801L5.98735 8.42711C5.88972 8.32948 5.88972 8.17119 5.98735 8.07356L8.57313 5.48777ZM8.07216 12.6332L4.92669 9.48777C4.24327 8.80436 4.24327 7.69632 4.92669 7.0129L7.51247 4.42711C8.19589 3.7437 9.30393 3.7437 9.98735 4.42711L13.0416 7.48135C14.0268 6.73577 15.0167 6.08262 15.9125 5.55115C16.8517 4.99401 17.7057 4.55966 18.3613 4.28931C18.6846 4.15601 18.9867 4.05124 19.2392 3.99715C19.3618 3.97089 19.5119 3.94777 19.6647 3.9553C19.7825 3.9611 20.1092 3.99355 20.3388 4.28467C20.5206 4.51506 20.5322 4.77395 20.5325 4.8817C20.533 5.01969 20.5113 5.15746 20.4851 5.27846C20.4318 5.52443 20.3338 5.81655 20.208 6.13153C19.9538 6.76813 19.5492 7.58894 19.0246 8.49409C18.4885 9.41898 17.8175 10.4487 17.0367 11.4764L20.0731 14.5129C20.7565 15.1963 20.7566 16.3044 20.0731 16.9878L17.4873 19.5736C16.8039 20.257 15.6959 20.257 15.0125 19.5736L11.8664 16.4275C11.7623 16.4849 11.6594 16.5371 11.5579 16.5834C11.4696 17.4359 11.0163 18.1584 10.4969 18.6778C10.1181 19.0566 9.51662 19.4013 8.92038 19.6767C8.30455 19.9611 7.61041 20.2095 6.98383 20.3688C6.67052 20.4484 6.3614 20.509 6.07913 20.5384C5.81114 20.5664 5.50712 20.5732 5.23356 20.5031C4.96194 20.4335 4.51581 20.2199 4.42402 19.6816C4.35109 19.2538 4.56704 18.8826 4.73273 18.6525C5.13295 18.0965 5.12344 17.487 5.07278 16.6469L5.06587 16.5363C5.01943 15.8058 4.95152 14.7379 5.75431 13.9351C6.27695 13.4125 7.00544 12.9567 7.86504 12.8725C7.89393 12.8697 7.92284 12.8673 7.95177 12.8653C7.98879 12.7886 8.02904 12.7112 8.07216 12.6332ZM13.1214 15.5612L16.0731 18.5129C16.1708 18.6105 16.3291 18.6105 16.4267 18.5129L19.0125 15.9271C19.1101 15.8295 19.1101 15.6712 19.0125 15.5736L18.1249 14.686L17.0301 15.7807C16.7373 16.0736 16.2624 16.0736 15.9695 15.7807C15.6766 15.4878 15.6766 15.0129 15.9695 14.72L17.0642 13.6253L16.0911 12.6522C15.5981 13.2305 15.0724 13.7947 14.5186 14.3247C14.0366 14.7861 13.5658 15.2053 13.1214 15.5612ZM16.6779 6.84121C14.8805 7.90754 12.7157 9.47121 11.047 11.2497C10.5466 11.783 10.1253 12.2783 9.80577 12.7143C9.67884 12.8875 9.57262 13.0451 9.4856 13.1868C9.83208 13.362 10.1715 13.6097 10.4969 13.9351C10.8487 14.2869 11.1096 14.6549 11.2863 15.0306C11.4607 14.9255 11.6592 14.7911 11.881 14.6251C12.3585 14.2677 12.9009 13.7967 13.4814 13.2411C15.2452 11.5529 16.7279 9.46536 17.7268 7.74193C18.1726 6.97269 18.5146 6.28884 18.7395 5.75853C18.1905 5.99918 17.4779 6.3666 16.6779 6.84121ZM6.26337 18.9943C6.37258 18.973 6.49004 18.9466 6.61435 18.915C7.14688 18.7797 7.75434 18.563 8.29141 18.3149C8.84806 18.0578 9.25081 17.8026 9.43629 17.6171C9.79233 17.2611 10.0259 16.8379 10.0667 16.4209C10.1044 16.0363 9.98992 15.5494 9.43629 14.9958C8.88266 14.4421 8.39576 14.3277 8.01121 14.3654C7.59417 14.4062 7.17101 14.6397 6.81497 14.9958C6.53058 15.2802 6.51575 15.6557 6.57006 16.5566L6.57254 16.5975C6.61212 17.2506 6.66538 18.1293 6.26337 18.9943ZM5.89058 19.6257C5.89034 19.6258 5.8914 19.6228 5.89452 19.6165C5.89239 19.6225 5.89083 19.6257 5.89058 19.6257Z"></path></svg>